<svg width="167" height="271" viewBox="0 0 167 271" fill="none" xmlns="http://www.w3.org/2000/svg">
<path d="M79.4496 138.156L24.1545 147.238C20.2982 147.891 16.638 145.409 16.2459 141.88L0.0364204 8.00742C-0.421104 4.02194 3.50053 0.755147 7.94506 1.53918L64.3513 11.6009C67.2272 12.1236 69.4495 14.2143 69.7763 16.8277L84.8092 131.623C85.2014 134.759 82.9138 137.634 79.4496 138.156Z" fill="white"/>
<path d="M21.344 142.142L5.13455 8.33413C4.74239 5.26335 6.96465 2.71525 10.0366 1.99656L7.94506 1.60455C3.50053 0.820516 -0.421104 4.08731 0.0364204 8.07279L16.2459 141.946C16.638 145.409 20.3636 147.891 24.1545 147.303L25.2656 147.107C23.1741 146.193 21.6054 144.363 21.344 142.142Z" fill="#84A9D5"/>
<path d="M76.247 130.904L31.2789 140.051C28.1416 140.704 25.135 138.483 24.7428 135.347L10.4288 13.8223C9.97132 10.1635 13.174 7.15809 16.8342 7.81145L62.9135 15.9784C65.2664 16.3704 67.0965 18.2652 67.358 20.6826L80.5608 124.828C80.953 127.703 79.0575 130.316 76.247 130.904Z" fill="#D7E1FC"/>
<path d="M25.5925 8.92212L26.8997 13.4303C27.0958 14.0183 27.5534 14.4103 28.1416 14.541L54.4166 18.3958C54.9395 18.4611 55.3316 17.9384 55.1356 17.4811L54.2205 13.561" fill="white"/>
<path opacity="0.46" d="M13.8274 42.3087L68.9918 33.2271L74.2207 74.5192L18.2066 79.8768" fill="white"/>
<path opacity="0.46" d="M19.0563 87.0637L75.2665 83.1436L78.6652 109.735L21.4093 106.926" fill="white"/>
<path opacity="0.46" d="M22.5206 116.203L79.5805 116.857L80.3648 123.064L24.3507 131.884" fill="white"/>
<path d="M46.4558 50.2481L61.8621 51.1164L65.4174 72.6077L52.6183 73.476L46.4558 50.2481Z" fill="#84A9D4"/>
<path d="M26.5461 50.2481L41.9524 51.1962L45.5077 74.6611L32.7086 75.6092L26.5461 50.2481Z" fill="#84A9D4"/>
<path d="M115.759 33.7051C116.512 37.4668 117.866 40.9276 119.823 44.2379C120.726 45.7426 121.931 47.2473 123.285 48.3006C119.823 51.6109 115.458 53.5669 111.093 55.3726C110.19 55.824 109.286 56.1249 108.383 56.5763C109.889 51.4604 108.985 45.5921 105.824 41.379" fill="#FEA1A1"/>
<path d="M107.33 43.7864C108.082 43.9369 108.835 44.0874 109.738 43.9369C112.598 43.636 114.856 41.3789 116.813 39.1219C117.114 38.821 117.264 38.52 117.264 38.0686C117.264 37.7677 117.114 37.4668 116.963 37.3163C116.06 35.6611 115.157 34.1565 114.254 32.5013C114.254 32.3508 114.103 32.3508 113.953 32.3508C113.953 32.3508 113.953 32.3508 113.802 32.5013C111.394 35.9621 109.888 40.1752 106.577 42.5827" fill="#FD8F90"/>
<path d="M94.8357 18.6582C94.5347 20.7647 94.5347 22.8713 94.9863 24.8274C95.1368 25.5797 95.4379 26.1816 95.4379 26.934C95.4379 28.7396 94.2336 30.3947 92.7284 31.2975C92.5778 31.448 92.4273 31.5985 92.2768 31.749C92.1263 32.3508 93.0294 32.6518 93.481 32.9527C94.5347 33.4041 94.8357 34.7583 94.9863 35.8116C95.5884 38.2191 96.4915 40.6266 97.3947 42.8836C97.6957 43.636 97.9968 44.3883 98.7494 44.6893C99.201 44.8397 99.5021 44.6893 99.9536 44.6893C102.814 44.2379 105.674 43.7864 108.082 42.1313C111.093 40.0247 113.953 36.263 115.157 32.8022C116.21 29.9433 115.608 26.934 115.759 23.9246C115.909 20.9152 115.307 17.7554 113.35 15.3479" fill="#FEA1A1"/>
<path d="M95.1369 36.564C96.6422 36.865 98.4485 36.564 99.8032 35.8117C99.6527 36.1126 99.3516 36.7145 99.0506 37.0154C98.7495 37.3164 98.599 37.4668 98.1474 37.7678C97.8464 38.0687 97.5453 38.0687 97.0937 38.3696C96.6421 38.5201 96.04 38.6706 95.5885 38.5201" fill="#FD8F90"/>
<path d="M112.297 27.8368C110.34 29.191 107.179 28.5891 105.824 26.4826C105.373 25.7302 105.072 24.8274 104.168 24.376C103.717 24.2255 103.265 24.2255 102.814 24.2255C100.857 24.2255 98.9 23.9246 97.2443 23.0218C96.4916 22.5704 95.739 22.119 95.438 21.3666C95.1369 20.4638 95.2874 19.4105 95.8895 18.6582C96.4916 17.9058 97.2443 17.304 97.9969 16.7021" fill="#FD8F90"/>
<path d="M98.2979 26.4826C98.2979 26.3321 98.4484 26.3321 98.4484 26.3321C98.599 26.1816 98.9 26.1816 98.9 26.4826C98.9 26.934 99.0505 27.3854 99.0505 27.8368C99.0505 27.9873 98.7495 28.1377 98.5989 27.9873C98.2979 27.3854 98.1474 26.934 98.2979 26.4826Z" fill="#84A9D5"/>
<path d="M103.867 34.1565C102.787 34.1565 101.911 33.2807 101.911 32.2004C101.911 31.12 102.787 30.2443 103.867 30.2443C104.948 30.2443 105.824 31.12 105.824 32.2004C105.824 33.2807 104.948 34.1565 103.867 34.1565Z" fill="#FD8F90"/>
<path d="M96.0399 23.6237C97.5452 23.4732 99.201 23.3228 100.556 24.2256C100.857 24.376 100.556 24.677 100.405 24.677C99.0505 23.9246 97.5452 24.0751 96.0399 24.2256C95.7389 24.0751 95.7389 23.6237 96.0399 23.6237Z" fill="#F0523A"/>
<path d="M118.92 38.9715C116.511 38.9715 115.006 37.3164 113.651 35.2098C112.146 32.8023 112.598 30.0939 113.35 27.8368C111.995 28.4387 110.34 28.1378 109.135 27.235C107.931 26.4826 107.028 25.1284 106.727 23.6237C106.577 23.3228 106.577 23.0218 106.275 22.8714C105.974 22.7209 105.673 22.8714 105.372 22.8714C101.007 24.376 96.0397 23.7742 92.126 21.5171C90.4702 20.4639 88.965 19.2601 87.9113 17.605C86.8576 15.9498 86.5566 13.8432 87.1587 12.0376C87.6103 10.3825 88.965 8.87778 90.6208 8.12543C92.2766 7.37309 94.2334 7.52355 95.8892 8.42637C94.986 6.16934 95.8892 3.61137 97.846 2.10669C99.8028 0.601999 102.211 0.00012207 104.469 0.00012207C107.179 0.00012207 110.039 0.601999 112.296 2.10669C114.554 3.61137 116.21 6.16934 116.361 8.87778C119.371 7.67403 122.833 7.97496 125.543 9.63012C128.252 11.4357 129.908 14.5956 130.059 17.7554C130.059 18.8087 129.908 20.0125 129.456 20.9153C128.403 23.4732 125.844 24.9779 123.586 26.3321C124.188 28.7396 124.79 31.4481 124.188 33.8556C123.435 36.7145 121.479 38.9715 118.92 38.9715Z" fill="#FC634C"/>
<path d="M87.1589 12.3386C87.1589 12.0376 87.3094 11.8872 87.4599 11.5862C87.3094 13.2414 87.761 15.047 88.6642 16.4012C89.5673 17.605 90.9221 18.5078 92.4273 19.2601C95.2873 20.6144 98.5989 21.2162 101.76 20.9153C103.566 20.7648 105.674 20.3134 107.179 21.3667C108.684 22.42 109.286 24.5265 110.942 25.1284C111.845 25.4294 113.049 25.2789 113.953 25.7303C115.307 26.4826 115.458 28.2883 116.21 29.492C116.511 29.9434 117.114 30.3948 117.716 30.3948C118.468 30.3948 118.92 29.6425 119.221 28.8901C119.673 27.0845 119.07 25.1284 120.275 23.6237C121.027 22.7209 122.231 22.42 123.436 21.8181C124.64 21.2162 125.844 20.3134 126.597 19.2601C127.65 17.4545 127.801 15.1975 127.199 13.2414C126.747 11.8872 125.995 10.6834 124.941 9.63016C125.242 9.78063 125.393 9.93109 125.694 10.0816C128.403 11.8872 130.059 15.047 130.209 18.2069C130.209 19.2601 130.059 20.4639 129.607 21.3667C128.554 23.9247 125.995 25.4294 123.737 26.7836C124.339 29.1911 124.941 31.8995 124.339 34.307C123.737 36.865 121.78 39.122 119.221 39.122C116.813 39.122 115.307 37.4668 113.953 35.3603C112.447 32.9528 112.899 30.2444 113.651 27.9873C112.297 28.5892 110.641 28.2883 109.437 27.3854C108.233 26.6331 107.329 25.2789 107.028 23.7742C106.878 23.4733 106.878 23.1723 106.577 23.0219C106.276 22.8714 105.975 23.0219 105.674 23.0219C101.308 24.5265 96.341 23.9247 92.4273 21.6676C90.7715 20.6144 89.2663 19.4106 88.2126 17.7555C87.0084 16.2508 86.5568 14.1442 87.1589 12.3386Z" fill="#F0523A"/>
<path d="M111.695 11.5862C111.695 11.8871 111.394 12.1881 111.092 12.3385C108.985 13.8432 106.125 13.8432 103.566 12.9404C101.158 12.1881 98.8999 10.5329 96.7925 9.02823C96.341 9.78057 96.642 10.8338 97.0936 11.5862C97.6957 12.3385 98.4483 12.7899 99.201 13.3918C100.556 14.2946 101.91 15.1974 103.416 15.6488C104.921 16.1003 106.577 16.4012 108.233 15.9498C109.888 15.4984 111.394 13.0909 111.695 11.5862Z" fill="#F0523A"/>
<path d="M115.609 12.6395C115.006 13.8432 115.458 15.6488 115.91 17.003C116.361 18.3573 117.415 19.561 118.017 20.9152C118.017 21.0657 118.167 21.2162 118.017 21.3666C118.017 21.5171 117.866 21.5171 117.716 21.5171C116.963 21.6676 116.06 21.5171 115.307 21.2162C113.953 20.4638 113.2 18.6582 113.351 17.003C113.652 15.3479 114.555 13.8432 115.609 12.6395Z" fill="#F0523A"/>
<path d="M124.49 12.9405C124.791 13.5424 125.092 13.9938 125.543 14.4452C125.543 14.4452 125.543 14.5957 125.393 14.5957C125.092 14.1443 124.64 13.6929 124.49 12.9405C124.339 12.9405 124.49 12.9405 124.49 12.9405Z" fill="#F0523A"/>
<path d="M123.135 13.8433C123.285 14.1442 123.436 14.2947 123.436 14.5956C123.436 14.5956 123.436 14.7461 123.285 14.5956C123.285 14.4452 123.285 14.2947 123.135 13.8433Z" fill="#F0523A"/>
<path d="M126.446 17.605C126.597 18.0564 126.597 18.5079 126.597 18.9593C126.597 19.1097 126.446 19.1097 126.446 18.9593C126.446 18.5079 126.446 18.0564 126.446 17.605C126.296 17.605 126.446 17.605 126.446 17.605Z" fill="#F0523A"/>
<path d="M124.339 19.7115C124.489 20.163 124.49 20.6144 124.49 21.2162C124.49 21.3667 124.339 21.3667 124.339 21.2162C124.339 20.6144 124.339 20.163 124.339 19.7115C124.188 19.5611 124.339 19.5611 124.339 19.7115Z" fill="#F0523A"/>
<path d="M122.232 18.8087C122.232 19.2601 122.081 19.862 122.081 20.3134C122.081 20.4639 121.931 20.4639 121.931 20.3134C121.931 19.862 122.081 19.2601 122.232 18.8087C122.081 18.6583 122.232 18.6583 122.232 18.8087Z" fill="#F0523A"/>
<path d="M119.673 16.1003C119.372 15.348 119.071 14.7461 118.619 14.1442C118.619 14.1442 118.619 13.9937 118.77 13.9937C119.221 14.5956 119.673 15.348 119.673 16.1003C119.823 16.1003 119.823 16.1003 119.673 16.1003Z" fill="#F0523A"/>
<path d="M121.027 12.1882C120.576 11.8872 120.275 11.4358 119.823 11.1349C119.823 11.1349 119.823 10.9844 119.974 10.9844C120.275 11.2853 120.726 11.7368 121.027 12.1882C121.178 12.0377 121.027 12.1882 121.027 12.1882Z" fill="#F0523A"/>
<path d="M124.038 23.4733C123.737 23.9247 123.436 24.3761 123.135 24.8275H122.984C123.436 24.2256 123.737 23.7742 124.038 23.4733C124.038 23.3228 124.188 23.3228 124.038 23.4733Z" fill="#F0523A"/>
<path d="M120.275 21.0657C120.275 21.6676 120.275 22.119 120.124 22.7209C120.124 22.8713 119.974 22.7209 119.974 22.7209C120.124 22.2695 120.124 21.6676 120.275 21.0657Z" fill="#F0523A"/>
<path d="M121.328 29.0406C121.178 29.492 121.027 30.0939 121.027 30.5453C121.027 30.6958 120.877 30.5453 120.877 30.5453C121.027 30.0939 121.178 29.492 121.328 29.0406C121.328 29.0406 121.479 29.0406 121.328 29.0406Z" fill="#F0523A"/>
<path d="M119.522 30.8462C119.372 31.1472 119.221 31.5986 119.071 31.8995H118.92C119.07 31.5986 119.221 31.1472 119.522 30.8462C119.372 30.6958 119.522 30.8462 119.522 30.8462Z" fill="#F0523A"/>
<path d="M115.006 10.2321C115.006 9.63021 114.856 9.1788 114.555 8.7274C114.555 8.7274 114.555 8.57693 114.705 8.57693C114.856 9.17881 115.157 9.63021 115.006 10.2321C115.006 10.3825 115.006 10.3825 115.006 10.2321Z" fill="#F0523A"/>
<path d="M111.845 5.71793C111.544 5.26653 111.243 4.96559 110.942 4.66466C110.942 4.66466 110.942 4.51419 111.093 4.51419C111.394 4.81513 111.695 5.26653 111.845 5.71793C111.996 5.71793 111.996 5.71793 111.845 5.71793Z" fill="#F0523A"/>
<path d="M107.631 3.00949C107.179 2.70855 106.878 2.55808 106.276 2.40761V2.25714C106.878 2.40761 107.33 2.55808 107.631 3.00949C107.781 3.00949 107.781 3.00949 107.631 3.00949Z" fill="#F0523A"/>
<path d="M104.319 2.40771C103.566 2.25724 102.964 2.25725 102.212 2.10678C102.061 2.10678 102.061 1.9563 102.212 1.9563C102.964 2.10677 103.566 2.25724 104.319 2.40771Z" fill="#F0523A"/>
<path d="M109.437 9.78065C109.888 9.32924 107.932 8.12549 107.48 7.97502V7.82455C108.082 8.12549 110.19 9.32924 109.437 9.78065C109.587 9.93111 109.437 9.93111 109.437 9.78065Z" fill="#F0523A"/>
<path d="M104.771 6.7713C104.018 6.62083 103.265 6.47035 102.513 6.47035C102.362 6.47035 102.513 6.31989 102.513 6.31989C103.265 6.47035 104.018 6.62083 104.771 6.7713C104.921 6.62083 104.771 6.7713 104.771 6.7713Z" fill="#F0523A"/>
<path d="M101.459 4.8151C100.857 4.8151 100.255 4.8151 99.6528 4.96557C99.5023 4.96557 99.5023 4.8151 99.6528 4.8151C100.255 4.66462 100.857 4.66462 101.459 4.8151C101.459 4.66462 101.459 4.8151 101.459 4.8151Z" fill="#F0523A"/>
<path d="M104.771 4.36385C104.319 4.21339 103.867 4.21339 103.416 4.36385C103.265 4.36385 103.265 4.21338 103.416 4.21338C103.867 4.06292 104.319 4.21339 104.771 4.36385C104.771 4.21339 104.771 4.36385 104.771 4.36385Z" fill="#F0523A"/>
<path d="M104.47 9.17871C104.018 9.32918 103.566 9.32918 103.115 9.32918C102.964 9.32918 102.964 9.17871 103.115 9.17871C103.566 9.17871 104.018 9.17871 104.47 9.17871C104.47 9.02824 104.62 9.02824 104.47 9.17871Z" fill="#F0523A"/>
<path d="M99.6528 7.82463C99.2013 7.97509 98.7497 8.12556 98.1476 8.27603C98.1476 8.27603 97.997 8.12556 98.1476 8.12556C98.5991 7.9751 99.0507 7.82463 99.6528 7.82463C99.6528 7.67416 99.6528 7.82463 99.6528 7.82463Z" fill="#F0523A"/>
<path d="M98.298 4.21333C97.9969 4.51427 97.8464 4.66474 97.5453 4.81521C97.5453 4.81521 97.3948 4.66474 97.5453 4.66474C97.6959 4.51427 97.9969 4.3638 98.298 4.21333C98.298 4.06286 98.298 4.21333 98.298 4.21333Z" fill="#F0523A"/>
<path d="M110.19 6.47034C110.039 6.47034 109.738 6.47034 109.588 6.47034C109.437 6.47034 109.437 6.31989 109.588 6.31989C109.738 6.47034 109.889 6.47034 110.19 6.47034Z" fill="#F0523A"/>
<path d="M107.631 10.6834C107.33 10.6834 107.179 10.533 106.878 10.533V10.3825C107.179 10.533 107.48 10.533 107.631 10.6834C107.781 10.6834 107.781 10.6834 107.631 10.6834Z" fill="#F0523A"/>
<path d="M94.0831 10.0816C93.7821 10.2321 93.481 10.533 93.481 10.9844C93.481 11.1349 93.3305 11.1349 93.3305 10.9844C93.3305 10.533 93.481 10.2321 94.0831 10.0816C94.0831 9.93118 94.0831 10.0816 94.0831 10.0816Z" fill="#F0523A"/>
<path d="M91.6748 10.2321C91.6748 10.8339 91.6748 11.5863 91.8253 12.1882C91.8253 12.3386 91.6748 12.3386 91.6748 12.1882C91.5243 11.5863 91.5243 10.8339 91.6748 10.2321C91.5243 10.0816 91.6748 10.0816 91.6748 10.2321Z" fill="#F0523A"/>
<path d="M90.0189 11.1349C90.0189 11.7368 90.0189 12.1882 90.0189 12.79C90.0189 12.9405 89.8684 12.9405 89.8684 12.79C89.8684 12.1882 89.8684 11.5863 90.0189 11.1349C89.8684 10.9844 90.0189 10.9844 90.0189 11.1349Z" fill="#F0523A"/>
<path d="M94.2337 13.8432C94.3842 14.2946 94.5348 14.5956 94.6853 15.047C94.6853 15.047 94.5348 15.1974 94.5348 15.047C94.3842 14.5956 94.2337 14.2946 94.2337 13.8432C94.0832 13.6928 94.2337 13.6928 94.2337 13.8432Z" fill="#F0523A"/>
<path d="M92.5779 15.1976C92.879 15.348 93.18 15.649 93.4811 15.9499C93.4811 15.9499 93.4811 16.1004 93.3305 16.1004C93.18 15.7994 92.879 15.4985 92.5779 15.1976Z" fill="#F0523A"/>
<path d="M91.2232 15.9498C91.3737 16.4012 91.6748 16.8526 91.9758 17.304C91.9758 17.304 91.9758 17.4545 91.8253 17.4545C91.5242 16.8526 91.3737 16.4012 91.2232 15.9498C91.0726 15.7993 91.2232 15.7993 91.2232 15.9498Z" fill="#F0523A"/>
<path d="M99.201 16.8526C98.9 16.7022 98.599 16.7022 98.2979 16.5517V16.4012C98.599 16.5517 98.9 16.7022 99.201 16.8526Z" fill="#F0523A"/>
<path d="M98.5993 14.4451C98.2982 14.4451 97.9972 14.2947 97.5456 14.2947C97.3951 14.2947 97.5456 14.1442 97.5456 14.1442C97.9972 14.1442 98.2982 14.2947 98.5993 14.4451C98.7498 14.2947 98.7498 14.4451 98.5993 14.4451Z" fill="#F0523A"/>
<path d="M103.566 18.207C103.265 18.5079 102.964 18.5079 102.513 18.3574V18.207C102.964 18.3574 103.265 18.3574 103.566 18.207C103.566 18.0565 103.717 18.207 103.566 18.207Z" fill="#F0523A"/>
<path d="M97.6959 18.2069C97.0938 18.2069 96.6422 18.0564 96.0401 17.906V17.7555C96.6422 17.906 97.0938 18.0564 97.6959 18.2069C97.8465 18.0564 97.8465 18.2069 97.6959 18.2069Z" fill="#F0523A"/>
<path d="M101.007 20.4639C100.556 20.4639 99.9538 20.3134 99.5022 20.3134C99.3516 20.3134 99.3516 20.1629 99.5022 20.1629C99.9538 20.1629 100.405 20.3134 101.007 20.4639C101.007 20.3134 101.007 20.4639 101.007 20.4639Z" fill="#F0523A"/>
<path d="M94.8357 18.6584C94.6852 18.5079 94.3841 18.5079 94.2336 18.3574V18.2069C94.3841 18.3574 94.6852 18.5079 94.8357 18.6584C94.9862 18.6584 94.8357 18.6584 94.8357 18.6584Z" fill="#F0523A"/>
<path d="M108.082 19.1098C107.48 18.8088 106.878 18.5079 106.125 18.3574V18.2069C106.878 18.3574 107.48 18.6583 108.082 19.1098C108.233 18.9593 108.233 19.1098 108.082 19.1098Z" fill="#F0523A"/>
<path d="M112.899 22.721C112.598 22.4201 112.448 22.2696 111.996 22.2696C111.845 22.2696 111.996 22.1191 111.996 22.1191C112.448 22.2696 112.749 22.4201 112.899 22.721C113.05 22.721 113.05 22.8715 112.899 22.721Z" fill="#F0523A"/>
<path d="M110.039 22.5706C109.738 22.4201 109.587 22.2696 109.286 22.1191V21.9687C109.587 22.2696 109.738 22.2696 110.039 22.5706C110.189 22.5706 110.039 22.5706 110.039 22.5706Z" fill="#F0523A"/>
<path d="M105.523 20.163C105.373 20.163 105.222 20.163 105.072 20.0126V19.8621C105.222 20.0126 105.373 20.0126 105.523 20.163C105.674 20.0126 105.674 20.163 105.523 20.163Z" fill="#F0523A"/>
<path d="M113.2 25.7304C112.899 25.4294 112.748 25.279 112.297 25.1285V24.978C112.748 25.1285 113.05 25.4294 113.2 25.7304C113.351 25.7304 113.2 25.8808 113.2 25.7304Z" fill="#F0523A"/>
<path d="M110.49 29.6425C110.34 28.7397 110.791 27.8369 111.394 27.0845C111.996 26.4827 112.899 26.0312 113.802 26.0312C114.103 26.0312 114.555 26.0313 114.856 26.3322C115.608 26.7836 115.909 27.8369 115.759 28.8902C115.458 31.1472 113.651 33.2537 111.544 33.8556" fill="#FEA1A1"/>
<path d="M111.093 27.9874C111.394 27.235 112.447 26.7836 113.2 26.9341C113.953 27.0846 114.555 27.8369 114.555 28.5893C114.555 29.0407 114.404 29.4921 114.103 29.9435C113.802 30.6958 113.2 31.4481 112.447 31.4481C111.695 31.4481 111.093 30.8463 110.942 30.0939C110.641 29.4921 110.792 28.7397 111.093 27.9874Z" fill="#FD8F90"/>
<path d="M158.508 244.963C159.261 246.618 160.616 247.972 161.82 249.477C164.078 252.336 165.884 255.646 166.787 259.107C166.938 259.558 167.088 260.01 166.938 260.612C166.637 261.514 165.733 261.815 164.981 262.116C161.519 263.471 158.207 264.825 154.745 266.029C154.143 266.179 153.691 266.48 153.089 266.63C151.584 267.232 150.079 267.834 148.573 268.436C147.068 269.038 145.713 269.489 144.208 269.941C141.499 270.693 138.639 271.144 135.779 270.844C135.628 270.844 135.327 270.844 135.177 270.693C135.026 270.543 135.026 270.242 135.026 269.941C135.026 268.286 135.779 266.63 136.832 265.276C137.886 263.922 139.241 262.869 140.445 261.815C142.552 260.16 144.509 258.505 146.617 256.85C147.67 256.098 148.573 255.195 149.326 254.141C150.079 253.088 150.38 251.734 149.928 250.53" fill="#84A9D5"/>
<path d="M150.079 252.336C151.132 253.088 152.036 253.841 153.089 254.593C153.24 254.744 153.089 255.044 152.939 254.894C151.885 254.142 150.831 253.389 149.778 252.487C149.627 252.487 149.778 252.186 150.079 252.336Z" fill="#154678"/>
<path d="M148.573 254.743C149.778 255.646 150.831 256.85 151.734 258.054C151.885 258.204 151.584 258.505 151.433 258.204C150.53 257 149.476 255.947 148.272 255.044C148.122 254.894 148.272 254.743 148.573 254.743Z" fill="#154678"/>
<path d="M146.316 257.151C147.068 258.054 147.821 258.957 148.273 259.859C148.423 260.01 148.122 260.311 147.972 260.01C147.52 258.957 146.918 258.054 146.015 257.301C146.015 257.151 146.165 257.001 146.316 257.151Z" fill="#154678"/>
<path d="M144.208 258.656C144.81 259.408 145.262 260.16 145.563 261.063C145.714 261.214 145.262 261.364 145.262 261.214C144.961 260.311 144.509 259.558 143.907 258.806C143.757 258.656 144.058 258.505 144.208 258.656Z" fill="#154678"/>
<path d="M135.929 266.029C135.929 266.48 136.08 266.931 136.381 267.232C136.832 267.834 137.435 268.135 138.187 268.436C139.692 268.887 141.198 269.038 142.703 268.587C144.509 268.135 146.165 266.931 147.821 265.878C152.036 263.471 157.003 262.718 161.519 260.762C162.422 260.311 163.476 259.859 163.927 258.957C164.228 258.355 164.228 257.602 164.228 256.85C164.078 254.743 163.325 252.787 162.121 251.132C161.519 250.229 160.616 249.477 160.013 248.574C159.411 247.822 159.11 246.769 158.96 245.866C159.712 247.069 160.766 248.123 161.519 249.176C163.777 252.035 165.583 255.345 166.486 258.806C166.637 259.257 166.787 259.709 166.637 260.311C166.336 261.214 165.432 261.514 164.68 261.815C161.218 263.17 157.906 264.524 154.444 265.728C153.842 265.878 153.39 266.179 152.788 266.329C151.283 266.931 149.778 267.533 148.272 268.135C146.767 268.737 145.412 269.188 143.907 269.64C141.198 270.392 138.338 270.844 135.478 270.543C135.327 270.543 135.026 270.543 134.876 270.392C134.725 270.242 134.725 269.941 134.725 269.64C134.876 268.436 135.327 267.232 135.929 266.029Z" fill="#154678"/>
<path d="M86.2556 246.769C86.1051 248.574 86.5567 250.38 86.8577 252.186C87.4598 255.646 87.3093 259.258 86.4062 262.718C86.2556 263.17 86.1051 263.621 85.804 263.922C85.2019 264.524 84.1483 264.373 83.3956 264.223C79.9335 263.621 76.3209 263.17 72.8588 262.568C72.2567 262.417 71.8051 262.417 71.203 262.267C69.6978 261.966 68.042 261.816 66.5367 261.515C65.0314 261.214 63.5262 261.063 62.1715 260.612C59.462 260.01 56.7525 258.957 54.6451 257.301C54.4946 257.151 54.3441 257.001 54.1935 256.85C54.1935 256.549 54.1936 256.399 54.3441 256.098C55.0967 254.593 56.602 253.69 58.1072 253.088C59.6125 252.486 61.2683 252.186 62.9241 251.885C65.483 251.433 68.042 251.132 70.4504 250.681C71.6546 250.53 73.0093 250.229 74.063 249.778C75.1167 249.327 76.3209 246.919 76.622 245.715" fill="#84A9D5"/>
<path d="M75.5684 248.875C76.0199 250.079 76.4715 251.132 77.0736 252.336C77.2241 252.486 76.9231 252.787 76.7725 252.486C76.1704 251.283 75.7189 250.229 75.2673 249.026C75.1168 248.725 75.4178 248.725 75.5684 248.875Z" fill="#154678"/>
<path d="M73.0094 250.229C73.6115 251.584 73.9126 253.088 74.0631 254.593C74.0631 254.894 73.762 254.894 73.762 254.593C73.6115 253.088 73.3105 251.734 72.7084 250.38C72.5578 250.079 73.0094 250.079 73.0094 250.229Z" fill="#154678"/>
<path d="M70.1496 251.132C70.4507 252.185 70.4507 253.389 70.4507 254.443C70.4507 254.743 70.1496 254.743 70.1496 254.443C70.1496 253.389 70.1497 252.336 69.8486 251.283C69.6981 250.982 69.9991 250.982 70.1496 251.132Z" fill="#154678"/>
<path d="M67.4401 251.433C67.5906 252.336 67.5906 253.239 67.4401 254.142C67.4401 254.442 66.9885 254.292 67.139 253.991C67.2895 253.088 67.2895 252.185 67.139 251.283C67.139 251.283 67.4401 251.283 67.4401 251.433Z" fill="#154678"/>
<path d="M56.903 253.54C56.7525 253.841 56.602 254.292 56.602 254.743C56.7525 255.496 57.0536 256.098 57.5051 256.699C58.5588 257.903 59.763 258.656 61.2683 259.107C63.0746 259.558 65.0314 259.408 66.9883 259.408C71.8051 259.408 76.3209 261.214 81.1378 261.815C82.1914 261.966 83.2451 261.966 84.1483 261.514C84.7504 261.063 85.0514 260.461 85.3525 259.859C86.2556 258.054 86.5567 255.947 86.2556 253.991C86.1051 252.938 85.804 251.884 85.804 250.831C85.6535 249.928 85.8041 248.875 86.2556 248.123C86.4062 249.477 86.7072 250.831 86.8577 252.185C87.4598 255.646 87.3093 259.257 86.4062 262.718C86.2556 263.17 86.1051 263.621 85.804 263.922C85.2019 264.524 84.1483 264.373 83.3956 264.223C79.9335 263.621 76.3209 263.17 72.8588 262.568C72.2567 262.417 71.8051 262.417 71.203 262.267C69.6978 261.966 68.042 261.815 66.5367 261.514C65.0314 261.214 63.5262 261.063 62.1715 260.612C59.462 260.01 56.7525 258.957 54.6451 257.301C54.4946 257.151 54.3441 257 54.1935 256.85C54.1935 256.549 54.1936 256.399 54.3441 256.098C54.7957 255.044 55.8494 254.142 56.903 253.54Z" fill="#154678"/>
<path d="M102.663 124.889C92.1261 151.071 87.3093 179.359 82.643 207.346C80.3851 220.437 78.2777 233.527 76.0198 246.468C78.4282 247.069 80.8366 247.822 83.3956 248.424C84.9008 248.875 86.4061 249.176 87.7608 248.424C88.664 247.822 89.2661 246.919 89.8682 245.866C94.9861 236.838 100.104 227.809 103.416 217.879C105.673 211.258 107.028 204.186 108.834 197.415C110.942 189.44 113.802 181.616 117.264 174.243" fill="white"/>
<path d="M133.671 124.438C138.488 139.936 134.123 156.488 133.972 172.588C133.822 187.334 137.284 202.079 143.907 215.17C149.175 225.553 156.551 235.183 159.411 246.468C156.551 247.671 153.842 249.026 150.982 250.229C150.229 250.53 149.477 250.831 148.724 250.982C146.767 251.132 144.961 249.778 143.606 248.424C132.467 238.192 123.436 225.854 116.963 212.311C115.458 209.001 114.103 205.691 113.049 202.23C111.695 197.565 110.942 192.6 110.189 187.785C108.383 175.146 106.426 162.506 104.62 149.867C103.867 145.052 103.115 140.086 102.814 135.121C102.362 129.403 102.512 123.384 105.071 118.118" fill="white"/>
<path d="M70.2926 69.7132C69.0652 69.0922 67.9044 68.9433 66.7437 68.7944C64.2442 68.4598 61.7447 68.1251 59.3386 67.7182C59.1608 67.6813 58.8894 67.7167 58.7205 67.4984C58.636 67.3893 58.4671 67.1709 58.476 66.9895C57.9384 65.1366 57.5786 63.3207 57.2189 61.5047C57.2278 61.3232 57.1434 61.2141 57.2368 61.1418C57.3302 61.0695 57.4236 60.9972 57.6015 61.0341C59.136 60.8938 60.6347 61.4793 62.1334 62.0648C65.3931 63.3819 67.1262 66.1091 70.2926 67.4985" fill="#FD8F90"/>
<path d="M89.3562 86.5121C91.8212 87.6498 100.338 75.2932 104.288 68.9726V86.5121C100.259 89.9093 91.3472 96.9883 87.9341 98.126C84.521 99.2637 72.2908 82.0087 66.6024 73.239C65.8123 72.3699 64.7062 70.5844 66.6024 70.3948C68.4985 70.2051 69.9207 68.2616 70.3947 67.3135C75.6881 73.239 86.8912 85.3744 89.3562 86.5121Z" fill="#35679C"/>
<path d="M66.1844 72.903C66.9408 71.5289 67.9525 70.3796 69.0919 69.3428C69.5491 68.9521 70.1264 68.5538 70.5761 68.043C70.6885 67.9153 70.6885 67.9153 70.8009 67.7877C70.7933 67.6676 70.6656 67.5551 70.658 67.435C70.2674 66.9776 69.7568 66.5278 69.3662 66.0703C69.1109 65.8454 68.9757 65.6128 68.6156 65.6357C68.2479 65.5384 67.8954 65.6814 67.6706 65.9368C66.8532 66.3503 66.0435 66.884 65.3614 67.5301C64.9041 67.9208 64.3344 68.4391 64.3802 69.1596C64.4106 69.6399 64.5612 70.1126 64.8317 70.5777C65.3728 71.5078 65.4033 71.9881 66.1844 72.903Z" fill="#84A9D5"/>
<path d="M67.8992 69.5389C67.5086 69.0814 67.2457 68.7364 66.8551 68.2789C66.7274 68.1665 66.9522 67.9111 67.0799 68.0236C67.4705 68.481 67.7334 68.826 68.124 69.2835C68.2593 69.516 68.0268 69.6513 67.8992 69.5389Z" fill="#84A9D5"/>
<path d="M66.6623 70.9434C66.2717 70.4859 66.0088 70.1409 65.6182 69.6835C65.4906 69.571 65.7154 69.3156 65.8431 69.4281C66.2336 69.8855 66.4966 70.2305 66.8871 70.688C67.0224 70.9205 66.7976 71.1759 66.6623 70.9434Z" fill="#84A9D5"/>
<path d="M69.2937 68.7269C69.0231 68.2618 68.8726 67.7892 68.6021 67.3241C68.4668 67.0915 68.8193 66.9486 68.8345 67.1888C69.105 67.6538 69.2555 68.1265 69.5261 68.5916C69.6537 68.7041 69.4213 68.8394 69.2937 68.7269Z" fill="#84A9D5"/>
<path d="M120.877 45.8929C118.468 49.6547 114.254 51.9117 110.039 53.2659C109.587 53.4164 108.985 53.5668 108.684 53.8678C108.534 54.1687 108.383 54.4697 108.233 54.7706C107.179 58.0809 106.276 61.2408 105.222 64.5511C104.62 66.6576 104.018 68.6137 103.717 70.7203C103.416 72.6764 103.416 74.482 103.265 76.4381C103.115 82.6073 102.964 88.7765 102.663 94.9457C102.362 104.877 102.061 114.808 101.911 124.588C101.911 125.039 101.911 125.34 102.212 125.641C102.513 125.792 102.814 125.942 103.115 125.942C110.491 126.093 117.866 126.394 125.393 126.544C127.801 126.544 130.36 126.695 132.618 125.641C133.069 125.491 133.672 125.19 133.973 124.739C134.575 123.836 134.274 122.632 134.274 121.579C134.123 118.569 135.628 115.71 136.381 112.701C137.134 109.993 137.284 106.983 137.435 104.124C137.585 99.3093 137.736 94.4943 137.435 89.8298C136.833 79.297 136.532 72.5259 132.768 62.595C131.865 60.3379 127.801 54.0183 126.446 51.9117C125.092 50.1061 122.834 47.6986 120.877 45.8929Z" fill="#265B91"/>
<g opacity="0.4">
<path opacity="0.4" d="M106.276 122.331C108.985 122.632 111.695 122.933 114.254 123.234C119.974 123.836 125.844 124.438 131.413 122.933C132.166 122.782 132.768 122.481 133.521 122.481C133.822 122.481 134.123 122.481 134.424 122.632C134.575 123.535 134.575 124.287 134.123 125.039C133.822 125.491 133.22 125.792 132.768 125.942C130.51 126.845 127.951 126.845 125.543 126.845C118.167 126.695 110.791 126.394 103.265 126.243C102.964 126.243 102.512 126.243 102.362 125.942C102.061 125.641 102.061 125.19 102.061 124.889C102.061 123.986 102.061 123.083 102.061 122.331C102.211 122.331 102.362 122.331 102.362 122.181C103.717 122.03 105.071 122.181 106.276 122.331Z" fill="#84A9D5"/>
</g>
<path d="M113.262 103.776C112.121 104.436 111.35 105.379 110.578 106.322C108.908 108.342 107.237 110.362 105.569 112.245C105.441 112.38 105.31 112.651 105.06 112.646C104.935 112.643 104.685 112.637 104.562 112.498C102.953 111.641 101.472 110.65 99.9908 109.659C99.8685 109.52 99.7434 109.517 99.7463 109.38C99.7492 109.243 99.7522 109.106 99.8802 108.972C100.663 107.481 101.935 106.549 103.207 105.617C106.004 103.621 108.913 104.029 111.707 102.17" fill="#FD8F90"/>
<g opacity="0.4">
<g opacity="0.4">
<path opacity="0.4" d="M132.317 123.083C132.317 123.535 132.317 123.986 132.317 124.588C132.317 124.738 132.016 124.738 132.016 124.588C132.016 124.136 132.016 123.685 132.016 123.083C132.166 122.933 132.317 122.933 132.317 123.083Z" fill="#174F88"/>
</g>
<g opacity="0.4">
<path opacity="0.4" d="M130.511 123.535C130.511 123.986 130.511 124.437 130.36 125.039C130.36 125.19 130.059 125.19 130.059 125.039C130.059 124.588 130.21 124.137 130.21 123.685C130.21 123.384 130.511 123.384 130.511 123.535Z" fill="#174F88"/>
</g>
<g opacity="0.4">
<path opacity="0.4" d="M128.554 123.836C128.554 124.287 128.554 124.588 128.403 125.039C128.403 125.19 128.102 125.19 128.102 125.039C128.253 124.738 128.253 124.287 128.253 123.986C128.403 123.685 128.554 123.685 128.554 123.836Z" fill="#174F88"/>
</g>
<g opacity="0.4">
<path opacity="0.4" d="M125.844 124.137C125.844 124.588 125.844 124.889 125.694 125.19C125.694 125.34 125.393 125.34 125.393 125.19C125.393 124.889 125.543 124.438 125.543 124.137C125.543 123.986 125.844 123.986 125.844 124.137Z" fill="#174F88"/>
</g>
<g opacity="0.4">
<path opacity="0.4" d="M122.533 124.287C122.533 124.588 122.533 124.889 122.382 125.19C122.382 125.34 122.081 125.34 122.081 125.19C122.081 124.889 122.081 124.588 122.232 124.287C122.232 124.137 122.533 124.137 122.533 124.287Z" fill="#174F88"/>
</g>
<g opacity="0.4">
<path opacity="0.4" d="M120.275 123.986C120.275 124.287 120.275 124.588 120.275 125.039C120.275 125.19 119.974 125.19 119.974 125.039C119.974 124.738 119.974 124.437 119.974 123.986C120.124 123.836 120.275 123.836 120.275 123.986Z" fill="#174F88"/>
</g>
<g opacity="0.4">
<path opacity="0.4" d="M118.469 123.836C118.318 124.287 118.318 124.738 118.167 125.19C118.167 125.34 117.866 125.34 117.866 125.19C117.866 124.738 118.017 124.287 118.167 123.836C118.167 123.685 118.469 123.685 118.469 123.836Z" fill="#174F88"/>
</g>
<g opacity="0.4">
<path opacity="0.4" d="M116.06 123.986C116.06 124.287 116.06 124.588 116.06 124.889C116.06 125.039 115.759 125.039 115.759 124.889C115.759 124.588 115.759 124.287 115.759 123.986C115.759 123.836 116.06 123.836 116.06 123.986Z" fill="#174F88"/>
</g>
<g opacity="0.4">
<path opacity="0.4" d="M114.103 123.685C114.103 124.137 114.103 124.437 113.953 124.889C113.953 125.039 113.652 125.039 113.652 124.889C113.802 124.437 113.802 124.137 113.802 123.685C113.802 123.535 114.103 123.535 114.103 123.685Z" fill="#174F88"/>
</g>
<g opacity="0.4">
<path opacity="0.4" d="M111.845 123.535C111.695 123.986 111.695 124.438 111.544 124.889C111.544 125.039 111.243 125.039 111.243 124.889C111.394 124.438 111.394 123.986 111.544 123.535C111.695 123.384 111.845 123.384 111.845 123.535Z" fill="#174F88"/>
</g>
<g opacity="0.4">
<path opacity="0.4" d="M109.738 123.234C109.738 123.685 109.738 124.136 109.738 124.588C109.738 124.738 109.437 124.738 109.437 124.588C109.437 124.136 109.437 123.685 109.437 123.234C109.437 123.083 109.738 123.083 109.738 123.234Z" fill="#174F88"/>
</g>
<g opacity="0.4">
<path opacity="0.4" d="M107.932 123.535C107.932 123.986 107.781 124.438 107.781 124.889C107.781 125.039 107.48 125.039 107.48 124.889C107.48 124.438 107.631 123.986 107.631 123.535C107.631 123.384 107.932 123.384 107.932 123.535Z" fill="#174F88"/>
</g>
<g opacity="0.4">
<path opacity="0.4" d="M105.824 123.234C105.975 123.836 105.975 124.287 105.824 124.889C105.824 125.039 105.523 125.039 105.523 124.889C105.674 124.438 105.674 123.836 105.523 123.384C105.674 123.083 105.824 123.083 105.824 123.234Z" fill="#174F88"/>
</g>
<g opacity="0.4">
<path opacity="0.4" d="M104.018 122.933C104.018 123.384 104.018 123.836 103.867 124.287C103.867 124.438 103.566 124.438 103.566 124.287C103.566 123.836 103.566 123.384 103.717 122.933C103.717 122.782 104.018 122.782 104.018 122.933Z" fill="#174F88"/>
</g>
</g>
<g opacity="0.4">
<path opacity="0.4" d="M130.51 119.322C129.457 120.977 127.65 120.225 126.747 119.773C125.844 119.171 125.543 118.118 125.543 117.065C125.543 114.808 126.747 112.701 127.65 110.595C129.758 105.479 130.059 99.9113 130.209 94.4944C130.209 93.4411 130.36 92.3878 131.263 91.7859C132.016 92.9897 132.317 94.1934 132.618 95.5477C134.274 103.372 133.521 111.798 130.51 119.322Z" fill="#84A9D5"/>
</g>
<g opacity="0.4">
<path opacity="0.4" d="M114.404 119.171C114.404 120.375 112.748 121.428 110.189 120.977C109.136 120.676 108.383 119.623 107.932 118.569C107.33 117.065 107.179 115.56 107.028 113.905C106.878 111.347 106.878 108.939 107.179 106.381C107.48 103.673 108.082 100.964 107.781 98.256C107.631 96.2999 107.179 94.4943 107.179 92.6887C107.179 92.0868 107.329 91.3344 107.781 91.0335C109.888 95.698 110.942 100.664 111.093 105.629C111.243 109.24 110.792 113.002 111.695 116.463C111.845 116.914 111.996 117.516 112.447 117.666C112.748 117.817 113.049 117.817 113.351 117.817C114.254 118.118 114.555 118.569 114.404 119.171Z" fill="#84A9D5"/>
</g>
<path d="M122.196 57.0332C123.25 54.6257 126.26 52.8201 128.669 53.8733C131.228 54.7761 131.679 55.679 134.69 57.4846C137.7 59.4407 140.109 62.1491 142.517 64.8575L142.517 64.8576C148.424 70.6536 159.194 83.6204 155.022 89.1193C150.851 94.6181 124.368 104.842 111.648 109.266C109.752 108.002 105.959 105.047 105.959 103.34C105.959 101.207 130.505 90.0186 132.742 89.1193C135.101 88.1712 141.264 86.9861 141.027 84.6159C140.837 82.7197 135.836 80.1043 134.539 79.1521C131.378 76.5941 128.067 74.0361 125.658 70.8763C124.153 69.0707 123.099 67.1146 122.347 64.8576C121.594 62.2996 121.142 59.4407 122.196 57.0332Z" fill="#35679C"/>
</svg>
