<svg width="210" height="81" viewBox="0 0 210 81" fill="none" xmlns="http://www.w3.org/2000/svg">
<path d="M96.368 16.2H104.648C106.52 16.2 108.168 16.544 109.592 17.232C111.032 17.904 112.144 18.872 112.928 20.136C113.728 21.4 114.128 22.888 114.128 24.6C114.128 26.312 113.728 27.8 112.928 29.064C112.144 30.328 111.032 31.304 109.592 31.992C108.168 32.664 106.52 33 104.648 33H96.368V16.2ZM104.408 28.584C105.624 28.584 106.592 28.24 107.312 27.552C108.048 26.848 108.416 25.864 108.416 24.6C108.416 23.336 108.048 22.36 107.312 21.672C106.592 20.968 105.624 20.616 104.408 20.616H102.032V28.584H104.408ZM130.164 28.728V33H116.196V16.2H129.852V20.472H121.764V22.44H128.868V26.52H121.764V28.728H130.164ZM150.062 16.2L142.958 33H137.39L130.286 16.2H136.382L140.39 26.016L144.494 16.2H150.062ZM96.368 45.2H102.032V57.608H109.616V62H96.368V45.2ZM122.863 59.072H116.479L115.351 62H109.591L116.935 45.2H122.503L129.847 62H123.991L122.863 59.072ZM121.303 54.992L119.671 50.768L118.039 54.992H121.303ZM147.311 45.2V62H142.655L136.271 54.368V62H130.751V45.2H135.407L141.791 52.832V45.2H147.311ZM161.152 53.144H166.072V60.248C165.08 60.936 163.928 61.464 162.616 61.832C161.304 62.2 160.016 62.384 158.752 62.384C156.96 62.384 155.352 62.016 153.928 61.28C152.504 60.528 151.384 59.488 150.568 58.16C149.768 56.816 149.368 55.296 149.368 53.6C149.368 51.904 149.768 50.392 150.568 49.064C151.384 47.72 152.512 46.68 153.952 45.944C155.408 45.192 157.048 44.816 158.872 44.816C160.52 44.816 161.992 45.096 163.288 45.656C164.6 46.2 165.688 47 166.552 48.056L162.928 51.248C161.872 50.016 160.616 49.4 159.16 49.4C157.912 49.4 156.92 49.776 156.184 50.528C155.448 51.28 155.08 52.304 155.08 53.6C155.08 54.864 155.44 55.88 156.16 56.648C156.896 57.416 157.872 57.8 159.088 57.8C159.808 57.8 160.496 57.664 161.152 57.392V53.144ZM179.233 47.288V53.144H187.657V55.208H179.233V62H176.833V45.2H188.689V47.288H179.233ZM204.259 59.912V62H192.067V45.2H203.923V47.288H194.467V52.448H202.891V54.488H194.467V59.912H204.259Z" fill="white"/>
<path d="M36.7485 64.1461C36.3813 64.1461 36.013 64.0209 35.7157 63.7684C33.063 61.505 30.3696 59.0335 27.7085 56.4247C22.1996 51.2939 17.4846 46.0742 13.7261 40.9363C13.5853 40.8323 13.4434 40.699 13.3475 40.5647C10.0751 35.9661 7.37544 31.3272 5.32669 26.7771C0.649206 16.3267 0.689889 8.69512 5.44665 4.09154C10.0741 -0.536275 17.9342 -0.686765 28.7955 3.66229C30.9225 4.50665 33.1673 5.44798 35.4675 6.46C35.5363 6.49131 35.6041 6.52665 35.6688 6.56604C36.0579 6.80844 36.3865 7.00438 36.6567 7.15386C36.8298 7.22254 36.979 7.31142 37.1052 7.39323C37.1542 7.42555 37.2033 7.4599 37.2481 7.49828L37.9773 8.10427C38.6334 8.64866 38.7085 9.60513 38.1463 10.2404C37.5819 10.8747 36.5962 10.9474 35.94 10.404L35.3527 9.91722C35.3225 9.90207 35.2912 9.88793 35.2609 9.87177C34.9448 9.70209 34.5474 9.4708 34.0707 9.17487C31.8394 8.19517 29.6655 7.28314 27.6021 6.46403C18.0406 2.63614 11.3373 2.55432 7.67586 6.21658C3.89862 9.87177 4.08013 16.3772 8.19327 25.5692C10.1304 29.8718 12.6819 34.2673 15.7749 38.6376C15.9804 38.7972 16.1963 39.0082 16.3517 39.286C19.9861 44.236 24.5457 49.2769 29.9064 54.2693C32.5446 56.858 35.1858 59.2789 37.7853 61.4949C38.4331 62.0494 38.4947 63.0058 37.9241 63.6331C37.6143 63.9724 37.1824 64.1461 36.7485 64.1461Z" fill="white"/>
<path d="M18.7541 36.6751C18.4422 36.6751 18.1282 36.5852 17.8559 36.4004C17.1487 35.9186 16.9797 34.9743 17.4752 34.2895L18.8323 32.419C18.8563 32.3887 18.8793 32.3574 18.9053 32.3281C21.1951 29.6314 23.7831 26.9528 26.5986 24.3642C31.9145 19.3536 37.2335 15.0985 42.3971 11.7321C42.4743 11.6806 42.5577 11.6362 42.6454 11.5998C47.7286 8.183 52.8567 5.50751 57.891 3.64507C68.6792 -0.690856 76.5091 -0.539356 81.1178 4.1127C85.887 8.69204 85.9298 16.3276 81.2158 26.7761C80.2801 29.1264 79.0721 31.5898 77.6503 34.034C77.6076 34.1087 77.5564 34.1804 77.5012 34.2461L76.8231 35.0541C76.2786 35.7055 75.2907 35.8015 74.6221 35.2732C73.9503 34.747 73.8501 33.7916 74.3957 33.1431L74.9872 32.4361C76.3088 30.1556 77.4281 27.8649 78.32 25.6257C82.4926 16.3781 82.6741 9.87475 78.8865 6.23875C75.2333 2.55326 68.5645 2.6381 59.0478 6.46196C54.1398 8.27895 49.164 10.8868 44.2195 14.2319C44.1277 14.2935 44.0307 14.344 43.9305 14.3854C38.9902 17.6295 33.8902 21.721 28.7662 26.5488C26.0468 29.0506 23.5588 31.6231 21.3578 34.2097L20.0351 36.0317C19.7326 36.4509 19.2475 36.6751 18.7541 36.6751Z" fill="white"/>
<path d="M72.5097 80.492C68.7012 80.492 64.2073 79.4658 59.0541 77.4155C56.174 76.3277 53.2459 74.9703 50.3751 73.3927L49.2297 72.7079C48.4943 72.2665 48.2648 71.3353 48.7207 70.6232C49.1776 69.9112 50.1394 69.692 50.8748 70.1324L51.9722 70.7869C54.6604 72.2655 57.4529 73.5583 60.2162 74.6037C69.712 78.38 76.4392 78.4215 80.2394 74.742C83.8602 71.1161 83.6662 64.6026 79.6428 55.3965C77.4198 50.5333 74.3717 45.55 70.5945 40.6061C67.0801 36.0126 62.7969 31.2797 57.8691 26.5388C54.7532 23.6886 51.7093 20.9797 48.8532 18.5143C48.2074 17.9578 48.1501 17.0013 48.7248 16.3762C49.2996 15.751 50.2875 15.6954 50.9353 16.2539C53.8144 18.7375 56.8781 21.4655 60.0441 24.3632C65.1117 29.2375 69.4981 34.0865 73.1085 38.8032C77.0224 43.9269 80.1862 49.1032 82.5145 54.1906C87.0846 64.6461 87.0627 72.2665 82.4697 76.8661C79.9724 79.282 76.6437 80.492 72.5097 80.492Z" fill="white"/>
<path d="M14.1173 80.496C9.99377 80.496 6.68907 79.2891 4.23559 76.8762C-0.441897 72.2706 -0.443983 64.6421 4.22724 54.2027C5.3455 51.6676 6.65361 49.1174 8.11089 46.6237C8.35498 46.052 8.70757 45.55 9.16238 45.1309L9.77158 44.4047C10.3171 43.7523 11.3019 43.6573 11.9716 44.1845C12.6423 44.7107 12.7435 45.6672 12.2 46.3146L11.522 47.1236C11.4688 47.1862 11.4135 47.2418 11.353 47.2953C11.1903 47.4367 11.0703 47.6084 10.9858 47.8215C10.9576 47.8912 10.9243 47.9629 10.8857 48.0286C9.46385 50.4496 8.19225 52.9311 7.10216 55.3986C2.98276 64.6027 2.771 71.1121 6.46688 74.7502C10.2014 78.4256 16.9109 78.3771 26.4046 74.6108C31.708 72.6039 37.0864 69.7224 42.4149 66.0429C42.5244 65.9733 42.6454 65.8995 42.7737 65.8379C47.399 62.6574 52.1068 58.7699 56.7728 54.2855C59.8532 51.403 62.6999 48.5134 65.2484 45.6854L66.715 43.6785C67.2147 42.9958 68.19 42.8342 68.8952 43.3159C69.6004 43.7997 69.7694 44.7441 69.2697 45.4288L67.7582 47.4993C67.7279 47.5408 67.6945 47.5812 67.6601 47.6195C65.0376 50.5314 62.1126 53.5018 58.9623 56.451C54.1378 61.0869 49.2464 65.1158 44.4334 68.4134C44.3436 68.477 44.2445 68.5286 44.1444 68.571C38.6553 72.3565 33.0693 75.343 27.5656 77.4267C22.4072 79.4709 17.9154 80.496 14.1173 80.496Z" fill="white"/>
<path d="M43.531 48.7951C40.8438 48.7951 38.5906 47.9103 36.8298 46.165C35.0814 44.4329 34.1958 42.2745 34.1958 39.7525C34.1958 37.2992 35.0825 35.1762 36.8298 33.443C38.5781 31.6695 40.8375 30.7645 43.531 30.7645C46.1086 30.7645 48.2888 31.6624 50.01 33.4309C51.9043 35.1631 52.8661 37.2901 52.8661 39.7535C52.8661 42.3008 51.8908 44.4753 49.9714 46.2135C48.3086 47.9063 46.1211 48.7951 43.531 48.7951ZM43.531 33.7955C41.6992 33.7955 40.245 34.3692 39.0809 35.5489C37.8948 36.7245 37.3242 38.0951 37.3242 39.7535C37.3242 41.4806 37.8948 42.8855 39.0684 44.0491C40.2336 45.2045 41.6929 45.764 43.5299 45.764C45.2532 45.764 46.6406 45.2065 47.7693 44.0602C49.1118 42.8411 49.7356 41.4523 49.7356 39.7515C49.7356 38.1214 49.1118 36.7659 47.8329 35.6065C47.8079 35.5832 47.7818 35.558 47.7588 35.5327C46.6322 34.3652 45.249 33.7955 43.531 33.7955Z" fill="white"/>
</svg>
