<svg width="101" height="262" viewBox="0 0 101 262" fill="none" xmlns="http://www.w3.org/2000/svg">
<path d="M2.72913 92.0187V93.705C2.72913 93.705 4.04069 97.7334 6.38279 99.9819C8.72488 102.137 7.41331 98.3892 7.41331 98.3892L2.72913 92.0187Z" fill="#FEA1A1"/>
<path d="M70.0877 6.86024C69.4319 7.32866 67.1835 1.70764 66.9961 1.3329C66.9024 1.23922 66.8088 1.14553 66.7151 1.14553C65.3098 1.05185 66.3403 3.95605 67.9329 7.23498V7.32866C67.5582 7.51603 66.4341 5.73604 66.3404 5.3613C65.872 4.33078 65.3098 5.17393 66.7151 8.07813C67.5582 9.85812 68.8698 11.8255 69.6193 13.2307C69.6193 13.7928 69.4319 14.4486 68.3077 13.4181C66.5277 11.6381 66.153 12.856 67.2772 14.3549C69.1509 16.9781 71.3056 16.1349 74.2098 20.257C74.3035 20.4444 75.9898 23.817 78.0508 28.0328L85.9202 24.6602C84.1402 23.0675 82.6413 21.5686 82.6413 21.5686C81.7982 20.8191 81.1424 20.0696 80.4866 19.5075C77.0203 16.697 76.5519 13.9802 76.0834 12.856C73.4603 6.29814 73.1792 3.39394 72.6171 3.11289C71.5866 2.55079 72.1487 6.01709 72.1487 6.01709C71.3992 6.39182 70.1814 -0.0723559 69.0572 0.677114C67.8393 1.23922 70.0877 6.86024 70.0877 6.86024Z" fill="#FEA1A1"/>
<path d="M61.0003 60.4474L67.3708 57.5432C67.3708 57.5432 62.2182 71.221 69.1508 79.3715C75.5213 86.8662 52.8498 83.0252 52.8498 83.0252C52.8498 83.0252 58.7519 73.1884 52.5688 64.0074C51.1635 61.9464 61.0003 60.4474 61.0003 60.4474Z" fill="#FEA1A1"/>
<path d="M65.5909 69.7221C65.5909 69.7221 65.4972 67.9421 68.3077 65.7873C74.3972 61.0095 76.8329 45.3643 63.9046 39.7433C52.4751 34.778 37.2047 42.0854 28.8669 39.3685C25.4006 38.2443 22.7774 36.8391 20.9974 35.3401C18.9364 33.7475 15.9385 35.0591 15.8448 37.6822C15.6574 43.1159 15.9385 50.3295 18.2806 55.8569C23.9016 69.2536 35.7058 72.3452 52.7562 73.1884C61.2815 73.6568 65.5909 69.7221 65.5909 69.7221Z" fill="#271A11"/>
<path d="M67.7457 66.2558C67.7457 64.4758 67.3709 63.0705 66.9962 61.8526C65.6846 57.9179 55.4731 56.2316 49.1026 59.3232C25.9627 70.4715 16.3133 49.018 16.3133 49.1116C16.1259 50.5169 17.8122 54.639 18.2807 56.0442C23.2459 70.8463 42.0763 73.4694 52.6626 73.3757C61.3752 73.282 65.5909 69.8157 65.5909 69.8157C65.5909 69.8157 65.6847 67.9421 67.7457 66.2558Z" fill="#271A11"/>
<path d="M0.480712 91.644L11.6291 102.324C12.2849 102.98 13.4091 102.98 14.0649 102.324L18.8427 99.5135C19.4985 98.8577 19.4985 97.7335 18.8427 96.984L7.60068 86.3977C6.9449 85.7419 5.82069 85.6483 5.1649 86.3977L0.574402 89.2082C-0.175068 89.7703 -0.175074 90.8946 0.480712 91.644Z" fill="#307CC4"/>
<path d="M28.8669 110.849C28.8669 110.849 12.1912 102.23 12.0975 99.5135C11.9102 93.3304 3.01022 92.1125 5.16494 97.6399C7.31967 103.261 26.7122 123.028 26.7122 123.028L28.8669 110.849Z" fill="#FEA1A1"/>
<path d="M65.7782 142.046L46.292 139.329C46.292 139.329 37.5795 170.994 35.8932 178.301C34.2068 185.609 34.3942 190.574 36.4552 194.602C38.5163 198.631 59.6888 218.96 67.0898 224.675C74.4908 230.39 80.2055 233.856 81.9855 237.229C83.7655 240.601 84.3276 253.811 87.5129 253.342C90.6981 252.874 94.2581 232.544 92.3844 231.326C90.5108 230.202 88.9181 230.577 86.576 228.516C84.2339 226.361 65.3098 196.663 57.1593 191.511C49.0088 186.358 65.7782 142.046 65.7782 142.046Z" fill="#FDC445"/>
<path opacity="0.2" d="M65.7782 142.046L46.292 139.329C46.292 139.329 37.5795 170.994 35.8932 178.301C34.2068 185.609 34.3942 190.574 36.4552 194.602C38.5163 198.631 59.6888 218.96 67.0898 224.675C74.4908 230.39 80.2055 233.856 81.9855 237.229C83.7655 240.601 84.3276 253.811 87.5129 253.342C90.6981 252.874 94.2581 232.544 92.3844 231.326C90.5108 230.202 88.9181 230.577 86.576 228.516C84.2339 226.361 65.3098 196.663 57.1593 191.511C49.0088 186.358 65.7782 142.046 65.7782 142.046Z" fill="#FDC445"/>
<path d="M92.3844 231.326C90.5108 230.202 88.9181 230.577 86.576 228.516C85.4518 227.579 80.8613 220.646 75.4276 213.058C72.7108 216.15 69.0572 220.084 65.4972 223.363C66.0593 223.832 66.6214 224.3 67.0898 224.675C74.4908 230.39 80.2055 233.856 81.9855 237.228C83.7655 240.601 84.3276 253.81 87.5129 253.342C90.6981 252.874 94.2581 232.544 92.3844 231.326Z" fill="#FEA1A1"/>
<path opacity="0.67" d="M68.6826 144.388L51.7259 140.078C51.7259 140.078 43.0133 170.713 44.1375 194.04C44.1375 194.04 44.2312 202.472 56.0353 210.622C67.9332 218.773 57.0658 191.511 57.0658 191.511L68.6826 144.388Z" fill="#FDC445"/>
<path d="M70.2751 212.402L74.0225 211.184L78.4256 217.368L78.2383 233.106L73.273 229.265L70.2751 212.402Z" fill="#FEA1A1"/>
<path d="M92.4782 231.701C91.4476 230.483 90.1361 230.577 88.8245 230.109C88.8245 230.109 88.3561 240.789 84.234 247.159C84.7961 248.471 85.3582 253.436 87.4193 253.342C90.6982 253.342 94.0708 233.669 92.4782 231.701Z" fill="#307CC4"/>
<path d="M82.7351 134.739C82.7351 134.739 85.2645 137.174 82.3603 149.822C79.9245 160.408 65.1225 180.831 66.2467 186.546C67.4646 192.26 72.8045 195.258 73.273 202.847C73.7414 210.435 76.3645 234.606 78.4256 240.039C80.5803 245.473 84.3276 248.471 79.175 252.312C73.9287 256.246 60.4383 263.647 60.1572 261.399C59.7825 259.151 70.8372 248.939 70.0878 244.63C69.3383 240.32 48.5405 204.908 46.9479 198.725C45.3552 192.542 48.2594 178.489 51.351 167.809C54.4426 157.129 60.6257 138.205 60.6257 138.205L82.7351 134.739Z" fill="#FDC445"/>
<path d="M61.0003 60.4474L67.3708 57.5432C67.3708 57.5432 63.2487 69.16 70.1813 77.3105C76.5518 84.8052 52.8498 83.0252 52.8498 83.0252C52.8498 83.0252 58.7519 73.1884 52.5688 64.0074C51.1635 61.9464 61.0003 60.4474 61.0003 60.4474Z" fill="#FEA1A1"/>
<path opacity="0.46" d="M66.9961 58.7611L66.5277 57.918L60.9067 60.4474C60.9067 60.4474 57.1593 61.0095 54.6299 61.9464L53.8804 66.6306C55.0983 69.4411 54.8173 69.7221 54.6299 72.1579L55.2856 72.6263C55.5667 73.9379 56.5036 74.9684 57.7214 75.3431C59.8762 75.9989 63.7172 76.4674 68.214 74.5C65.0288 68.4105 66.3403 61.478 66.9961 58.7611Z" fill="#FCB29A"/>
<path d="M45 63C44.2384 64.5926 46.3857 63.9379 46.3857 64.5C47 68 47.2878 69.3628 48.4467 71.8769C51.5 78.5 64.2793 69.3474 64.7477 62.8832C65.3098 55.5759 61.9372 49.7675 56.0352 48.6433C53.5994 48.1749 50.9762 48.3622 48.9152 49.8612C47.6973 50.798 46.8541 52.0159 46.3857 53.4212C45.8236 55.1075 46.5731 58.22 46.3857 60C46.292 61.1242 46.2385 61.3662 45 63Z" fill="#FEA1A1"/>
<path opacity="0.43" d="M56.1289 48.5495C54.63 48.2685 53.1311 48.1748 51.6321 48.5495C51.7258 48.5495 51.9131 48.5495 52.0068 48.6432C57.9089 49.7674 60.0636 53.9832 59.5015 61.2905C59.1268 65.5063 55.7542 74.0315 51.1637 74.0315C56.41 75.9989 64.2794 68.3168 64.7478 62.7895C65.4036 55.4821 62.031 49.6737 56.1289 48.5495Z" fill="#F9AF9A"/>
<path d="M49.9457 53.7021C43.5752 53.3274 42.451 46.8632 49.1026 45.2706C49.7584 45.0832 50.4142 44.9895 51.1636 44.9895C63.9046 44.3338 68.7762 49.9548 68.3077 58.1989C67.7456 66.4431 65.0288 54.5453 49.9457 53.7021Z" fill="#271A11"/>
<path d="M51.1637 44.9895C51.1637 44.9895 63.6236 42.6474 65.8721 53.421L68.5889 53.7958C68.5889 53.7958 67.7457 46.1137 61.8436 44.24C55.8478 42.3664 51.1637 44.9895 51.1637 44.9895Z" fill="#52AFAC"/>
<path d="M50.9762 51.2663C47.6036 50.7042 46.011 48.5495 46.1984 46.5822C43.1068 49.0179 44.7931 53.4211 49.9457 53.7021C63.5299 54.4516 67.0898 64.1947 68.0267 60.0726C66.6214 63.0705 63.9983 53.5148 50.9762 51.2663Z" fill="#271A11"/>
<path d="M56.5973 87.3346L53.3183 80.683C53.3183 80.683 47.1352 81.0578 36.3616 113.66L21.6532 101.012C21.6532 101.012 17.8122 113.941 14.627 113.472C14.627 113.472 27.8364 129.961 37.3921 129.305C46.8542 128.743 56.5036 106.633 56.5036 106.633L56.5973 87.3346Z" fill="#F0523A"/>
<path d="M78.5193 240.039C77.114 236.573 75.5214 225.143 74.4908 215.494C69.2446 217.93 62.6867 219.803 58.0962 221.021C63.8109 231.608 69.713 242.381 70.0878 244.63C70.8372 248.939 59.7825 259.151 60.1572 261.399C60.532 263.647 74.0224 256.246 79.175 252.312C84.4213 248.471 80.5803 245.473 78.5193 240.039Z" fill="#FEA1A1"/>
<path d="M79.3624 242.1C78.9876 242.662 78.6129 243.505 78.3319 244.723C77.7698 247.815 70.1814 254.841 63.6235 255.965C61.6562 258.495 59.9698 260.65 60.1572 261.493C60.5319 263.741 74.0224 256.34 79.175 252.405C83.7655 248.939 81.4234 246.316 79.3624 242.1Z" fill="#307CC4"/>
<path opacity="0.27" d="M46.9478 102.324C43.0131 124.059 35.9868 129.492 37.3921 129.399C39.9215 129.211 42.451 127.525 44.7931 125.183L46.9478 102.324Z" fill="#F0523A"/>
<path opacity="0.1" d="M43.7626 141.859C61.4688 151.789 83.8592 144.575 85.2645 137.174C86.295 131.647 83.7655 113.004 82.3603 103.355C82.454 103.917 87.2318 141.39 43.7626 141.859Z" fill="#00687D"/>
<path d="M70.0878 59.6042C69.9004 62.8831 67.7457 65.5063 65.2162 65.3189C62.6868 65.2252 60.8131 62.4147 61.0005 59.0421C61.1878 55.7632 63.3426 53.14 65.872 53.3274C68.4015 53.5147 70.2752 56.3253 70.0878 59.6042Z" fill="#307CC4"/>
<path d="M70.7435 58.199C70.5561 61.4779 68.4015 64.1011 65.872 63.9137C63.3425 63.82 61.4689 61.0095 61.6562 57.6369C61.8436 54.3579 63.9983 51.7348 66.5277 51.9222C69.0572 52.1095 70.9309 54.92 70.7435 58.199Z" fill="#52AFAC"/>
<path d="M12.285 92.2998C11.3481 92.4872 9.00603 94.1735 9.00603 94.1735C9.00603 94.1735 10.3176 92.7683 10.8797 92.3935C12.6597 91.363 14.5334 91.9251 13.8776 91.082C13.2218 90.2388 11.1608 90.5199 10.4113 90.8946C9.56813 91.363 7.3197 93.424 7.3197 93.424C7.3197 93.424 8.25655 91.363 8.81865 90.8009C9.75549 89.9578 12.1913 89.6767 11.9102 89.1146C11.5355 88.2714 8.81864 89.302 7.78812 89.8641C7.22602 90.1451 6.66393 91.1756 6.19551 92.0188C6.2892 91.363 6.47657 90.8009 6.66393 90.4262C7.31972 89.2083 9.28706 88.2714 8.72496 87.803C8.16286 87.2409 6.00813 88.7399 5.44603 89.4893C5.25866 89.6767 5.16498 90.1451 4.97761 90.7072C4.97761 90.7072 3.38498 95.2977 4.97761 97.6398C5.82076 98.8577 11.5355 103.542 11.5355 103.542L10.1302 100.638C10.505 99.9819 11.4418 98.2956 11.3481 97.3588C11.3481 97.0777 11.2544 96.8903 11.1607 96.6093C10.8797 95.5788 11.2544 94.5483 12.1913 93.9862C12.285 93.8925 12.4723 93.8925 12.566 93.8925C13.3155 93.8925 15.1891 94.0798 15.0018 93.5177C14.9081 92.6746 13.1281 92.1125 12.285 92.2998Z" fill="#FEA1A1"/>
<path d="M68.1203 75.0621C68.1203 75.0621 84.8897 64.1011 85.9202 56.7937C85.9202 56.7937 74.9593 24.4728 73.3667 21.9434L80.1118 15.4792C80.1118 15.4792 102.596 44.2401 100.91 58.5737C99.2233 72.9073 81.5171 97.3588 81.5171 97.3588C81.5171 97.3588 86.6697 129.492 85.2644 137.081C83.8592 144.669 60.4383 152.07 42.5447 141.109L47.6036 105.228C47.6036 105.228 50.6952 83.3062 53.3183 80.7768C53.3183 80.7768 60.6256 80.5894 68.1203 75.0621Z" fill="#FDC445"/>
<path d="M53.9741 80.6831C53.5994 80.6831 53.3183 80.6831 53.3183 80.6831C50.6952 83.2126 47.6036 105.135 47.6036 105.135L42.5447 141.015C44.1373 147.011 48.3531 149.822 51.4446 150.759C54.1615 134.551 46.1047 115.721 53.9741 80.6831Z" fill="#F0523A"/>
<path d="M80.0182 15.4792L73.273 21.9434C74.8656 24.4729 85.8266 56.7938 85.8266 56.7938C84.7961 64.1011 68.0267 75.0621 68.0267 75.0621C64.5604 81.0579 71.7741 89.302 67.7457 118.531C63.7173 147.948 73.1793 149.541 73.1793 149.541C80.1119 147.854 84.6087 140.453 85.2645 137.081C86.6698 129.492 81.5172 97.3588 81.5172 97.3588C81.5172 97.3588 99.2234 73.0011 100.91 58.5738C102.596 44.2402 80.0182 15.4792 80.0182 15.4792Z" fill="#F0523A"/>
<path opacity="0.27" d="M78.2382 85.2736C78.2382 85.2736 79.175 89.8641 81.6108 97.0777C83.6719 94.1735 99.317 71.9705 100.91 58.5737C101.097 56.9811 99.5044 62.6958 96.6002 67.0989C91.8223 74.4062 87.0444 80.402 78.2382 85.2736Z" fill="#F0523A"/>
<path d="M65.872 64.0074C64.373 67.4737 63.6235 71.221 63.4361 74.9684C63.3425 76.8421 63.4361 78.7157 63.7172 80.5894C63.9982 82.4631 64.654 84.2431 65.1224 86.1167C66.9961 93.4241 66.8088 101.387 64.1856 108.601C62.874 112.161 60.9067 115.533 58.0962 118.157C55.2856 120.592 53.412 123.965 52.1941 127.525C51.0699 131.085 50.5078 134.832 50.2268 138.58C49.9457 142.327 49.9457 146.074 49.9457 149.915C49.9457 151.789 49.9457 153.663 49.852 155.63C49.7583 157.504 49.5709 159.471 48.9152 161.345C48.5404 162.282 48.072 163.218 47.1352 163.781C46.6668 164.062 46.1047 164.155 45.6362 164.249C45.1678 164.343 44.6994 164.343 44.1373 164.343C42.17 164.249 40.2963 163.218 38.9847 161.813C37.6731 160.408 36.6426 158.722 35.7994 157.035C34.9563 155.349 34.3005 153.569 33.7384 151.695C32.6142 148.042 31.8647 144.294 31.3026 140.547C30.7405 136.8 30.3658 133.052 30.1784 129.211C30.0847 127.338 29.991 125.464 29.991 123.497C29.991 121.623 30.1784 119.749 29.8974 117.876C29.3353 114.128 27.4616 110.756 25.3068 107.664C24.2763 106.071 23.0585 104.572 22.0279 103.074C21.4658 102.324 20.9974 101.481 20.529 100.638C20.0606 99.7946 19.7795 98.8577 19.7795 97.9209C19.8732 98.8577 20.1543 99.7946 20.6227 100.638C21.0911 101.481 21.5595 102.23 22.1216 103.074C23.2458 104.572 24.37 106.071 25.4942 107.664C27.649 110.756 29.6163 114.128 30.2721 117.876C30.6469 119.749 30.3658 121.717 30.3658 123.59C30.3658 125.464 30.4595 127.338 30.5532 129.211C30.7405 132.959 31.1153 136.706 31.6774 140.453C32.2395 144.201 32.9889 147.854 34.1131 151.508C34.6752 153.288 35.331 155.068 36.1742 156.754C37.0174 158.441 37.9542 160.033 39.2657 161.345C40.5773 162.656 42.2636 163.593 44.0436 163.687C44.512 163.687 44.9805 163.687 45.3552 163.593C45.8236 163.5 46.292 163.406 46.5731 163.218C47.3225 162.844 47.791 162.001 48.072 161.157C48.6341 159.471 48.8215 157.504 48.9152 155.63C49.0088 153.756 49.0089 151.883 49.0089 150.009C49.0089 146.262 49.1025 142.421 49.3836 138.673C49.6646 134.926 50.2267 131.085 51.4446 127.431C52.6625 123.871 54.6299 120.405 57.5341 117.876C60.3446 115.346 62.2183 112.067 63.5299 108.507C66.153 101.481 66.3404 93.6114 64.5604 86.3041C64.0919 84.5241 63.5298 82.6504 63.2488 80.7768C62.9677 78.9031 62.9678 77.0294 63.0614 75.0621C63.4362 71.221 64.373 67.4737 65.872 64.0074Z" fill="#F1F2F2"/>
</svg>
