<svg width="154" height="245" viewBox="0 0 154 245" fill="none" xmlns="http://www.w3.org/2000/svg">
<g clip-path="url(#clip0)">
<path d="M43.7363 54.741C44.2639 53.8952 43.7363 40.1769 43.7363 40.1769L55.6859 34.4147V47.6043C55.6859 47.6043 43.2087 55.5604 43.7363 54.741Z" fill="#FEA1A1"/>
<path d="M50.5156 78.8471C50.5156 78.8471 39.3837 102.742 34.0552 106.707C33.2374 107.315 32.0768 107.05 31.1799 106.76C29.6235 106.257 28.1727 105.385 26.8274 104.486C24.9808 103.297 23.2398 101.949 21.5252 100.574C19.5732 99.0149 17.7003 97.3761 15.8537 95.7109C13.9808 94.0457 12.1607 92.3276 10.3405 90.583C8.73144 89.0235 7.12232 87.464 5.53959 85.8781C4.48443 84.8208 3.40289 83.7635 2.37411 82.6534C1.66188 81.8869 0.764992 81.2525 0.237415 80.3009C-0.290161 79.3494 0.184662 77.4991 0.94965 76.7326C1.95205 75.7281 2.50601 75.1202 3.77219 74.433C5.27579 73.6136 6.88491 74.1687 8.3885 74.7237C8.15109 74.6444 9.0216 73.6136 9.25901 73.5871C9.60193 73.5343 10.1559 73.64 10.4197 73.8515C10.6835 74.0894 10.8154 74.433 10.8945 74.803C11.1319 75.8867 11.554 76.8912 11.7386 78.0013C11.9233 79.1643 11.7122 80.2745 11.5803 81.4375C11.5803 81.4375 28.7794 96.0545 29.2278 94.3364C29.3861 93.7285 35.3478 78.3449 37.3262 75.0673L50.5156 78.8471Z" fill="#FEA1A1"/>
<path d="M77.211 66.9527C77.211 66.9527 92.036 77.7899 92.7746 82.2041C93.5132 86.6182 92.6691 87.5169 91.8249 87.8341C90.9808 88.1513 65.4988 101.024 65.4988 101.024L64.9184 95.2087C64.9184 95.2087 79.6115 84.1865 81.7482 83.3935C81.7482 83.3935 72.6211 77.6842 71.1175 75.7282C69.6667 73.8251 77.211 66.9527 77.211 66.9527Z" fill="#FEA1A1"/>
<path d="M70.2734 95.1295C70.2734 95.1295 68.0049 98.8828 70.2734 105.834H43.4725C43.4725 105.834 45.8466 99.5701 45.0552 97.7462C44.2638 95.9224 70.2734 95.1295 70.2734 95.1295Z" fill="#FEA1A1"/>
<path d="M70.3789 77.6314C70.3789 77.6314 74.0719 95.3938 77.6331 98.4071C77.6331 98.4071 45.2925 99.7551 40.518 99.4379L36.3237 99.4908L49.1439 75.1996L70.3789 77.6314Z" fill="#FDC445"/>
<path d="M50.5156 78.8471C50.5156 78.8471 39.3837 102.742 34.0552 106.707C33.2374 107.315 32.0768 107.05 31.1799 106.76C29.6235 106.257 28.1727 105.385 26.8274 104.486C24.9808 103.297 23.2398 101.949 21.5252 100.574C19.5732 99.0149 17.7003 97.3761 15.8537 95.7109C13.9808 94.0457 12.1607 92.3276 10.3405 90.583C8.73144 89.0235 7.12232 87.464 5.53959 85.8781C4.48443 84.8208 3.40289 83.7635 2.37411 82.6534C1.66188 81.8869 0.764992 81.2525 0.237415 80.3009C-0.290161 79.3494 0.184662 77.4991 0.94965 76.7326C1.95205 75.7281 2.50601 75.1202 3.77219 74.433C5.27579 73.6136 6.88491 74.1687 8.3885 74.7237C8.15109 74.6444 9.0216 73.6136 9.25901 73.5871C9.60193 73.5343 10.1559 73.64 10.4197 73.8515C10.6835 74.0894 10.8154 74.433 10.8945 74.803C11.1319 75.8867 11.554 76.8912 11.7386 78.0013C11.9233 79.1643 11.7122 80.2745 11.5803 81.4375C11.5803 81.4375 28.7794 96.0545 29.2278 94.3364C29.3861 93.7285 35.3478 78.3449 37.3262 75.0673L50.5156 78.8471Z" fill="#FEA1A1"/>
<path d="M86.813 66.8735C86.813 66.8735 65.5516 55.8248 56.6619 47.9744C56.6619 47.9744 53.602 44.8819 47.6403 49.719C41.7051 54.556 31.8657 72.0806 31.8657 72.0806L31.2854 72.9529L48.9856 84.1865L52.3094 78.6358L70.4053 79.7195L72.9641 81.0676C72.9377 81.0676 80.4557 69.2523 86.813 66.8735Z" fill="#FDC445"/>
<path d="M81.6164 140.857C81.6164 140.857 83.6281 148.724 86.1383 155.225C87.998 160.041 93.1028 162.325 98.0759 163.712C104.342 165.459 114.221 169.733 127.753 180.03L138.7 186.241L140.336 192.003C140.336 192.003 134.743 195.043 133.978 195.043C133.214 195.043 133.372 193.827 132.765 193.536C132.158 193.246 87.6572 174.875 83.7267 173.369C79.7962 171.862 65.8682 157.139 64.6547 151.06C63.4149 144.981 81.6164 140.857 81.6164 140.857Z" fill="#FEA1A1"/>
<path d="M52.2302 152.17C52.2302 152.17 41.5875 169.493 40.518 172.5C38.654 175.161 37.6193 178.852 39.0311 181.778C41.5069 186.91 45.0411 196.441 48.1415 213.07L50.8585 229.696L40.518 226.497C40.518 226.497 24.5 185.5 23.1343 180.453C23.1343 172.5 32.5252 141.782 32.5252 141.782L52.2302 152.17Z" fill="#FEA1A1"/>
<path d="M60.5133 143.368L62.2279 152.117C62.2279 152.117 76.1823 154.152 86.9713 135.386L74.9425 115.535L60.5133 143.368Z" fill="#307CC4"/>
<path d="M42.9712 105.808L31.259 140.593C31.259 140.593 31.47 150.743 55.0791 153.941L64.5755 138.478C64.5755 138.478 86.2589 132.663 71.9616 110.037L71.5131 105.174L42.9712 105.808Z" fill="#307CC4"/>
<path d="M23.0815 240.903C23.0552 241.881 23.5827 242.674 24.7698 243.811C26.8537 245.793 31.5228 244.815 34.0024 244.392C37.2734 243.837 40.4652 242.912 43.789 242.621C46.5588 242.383 53.9976 244.101 55.4485 240.639C56.1871 238.868 55.4748 237.044 54.8681 235.96C54.7098 236.965 54.4197 237.176 53.8657 237.44C53.0216 237.81 47.8777 237.282 44.6331 238.048C41.3885 238.815 33.8178 241.088 30.8633 242.225C28.9377 242.965 25.6403 243.229 23.8993 241.881C23.4772 241.564 23.2134 241.247 23.0815 240.903Z" fill="#3D3C3B"/>
<path d="M30.8105 242.225C33.765 241.088 41.3357 238.815 44.5803 238.048C47.8249 237.282 52.9688 237.81 53.813 237.44C54.4461 237.15 54.7362 236.912 54.8681 235.458C54.8945 235.273 54.8945 235.088 54.9209 234.876C54.9473 234.559 54.9473 234.216 54.9736 233.793C55.0528 230.832 51.2542 224.912 51.2542 224.912C51.2542 224.912 48.2206 227.872 47.0863 227.872C45.952 227.872 44.2902 227.872 41.9424 225.599C39.5947 223.326 36.7986 224.991 35.9544 225.229C35.1103 225.467 34.6619 228.48 34.4508 228.929C34.0024 229.828 33.211 230.7 32.2878 231.546C31.7602 232.022 31.1798 232.498 30.5731 232.947C30.3093 233.158 30.0192 233.37 29.729 233.555C29.0695 234.004 28.4364 234.454 27.8033 234.876C27.5659 235.035 27.3285 235.194 27.0911 235.352C26.4053 235.828 25.7722 236.277 25.271 236.674C25.2446 236.7 25.2446 236.7 25.2182 236.7C23.7674 237.863 21.7098 240.216 23.8201 241.855C25.5875 243.229 28.8849 242.965 30.8105 242.225Z" fill="#FDC445"/>
<path d="M30.5732 232.947L35.6906 234.48C36.1655 234.612 36.6667 234.348 36.8249 233.872C36.8513 233.793 36.8513 233.713 36.8513 233.608C36.8513 233.211 36.5875 232.841 36.1918 232.735L32.2614 231.572C31.7602 232.048 31.1535 232.498 30.5732 232.947Z" fill="#3D3C3B"/>
<path d="M27.8033 234.903L32.7625 236.383C33.2374 236.515 33.765 236.251 33.8968 235.775C33.9232 235.696 33.9232 235.59 33.9232 235.511C33.9232 235.114 33.6594 234.744 33.2637 234.639L29.7026 233.581C29.0695 234.031 28.41 234.48 27.8033 234.903Z" fill="#3D3C3B"/>
<path d="M25.2447 236.727L30.0456 238.154C30.5205 238.286 31.048 238.022 31.1799 237.546C31.2063 237.467 31.2063 237.361 31.2063 237.282C31.2063 236.885 30.9425 236.515 30.5468 236.41L27.0912 235.379C26.4054 235.854 25.7723 236.304 25.2711 236.7C25.2711 236.7 25.2711 236.7 25.2447 236.727Z" fill="#3D3C3B"/>
<path d="M35.295 28.6525C34.8465 27.4895 36.0072 26.9608 37.1679 26.2736C38.8034 22.3352 39.9377 18.7668 43.4724 15.7271C46.7698 12.8725 51.4125 11.0222 55.8178 12.661C62.0168 14.987 64.2854 23.366 60.9089 31.4014C60.2231 33.0666 59.2998 34.5997 58.271 35.9742C54.2614 41.2606 46.2686 43.851 41.6523 41.3928C39.0144 39.9919 38.8825 40.3619 37.6427 37.613C36.8513 35.8685 35.7962 32.7759 36.1391 29.7626C35.8226 29.4983 35.506 29.1811 35.295 28.6525Z" fill="#FEA1A1"/>
<path d="M43.7362 14.5641C43.8944 13.7183 43.8681 12.8196 43.8417 11.9209C43.8153 11.2072 43.8153 10.4671 43.8681 9.75345C44.0791 7.66531 44.3429 5.63003 45.398 3.91194C46.4796 2.14098 48.7218 0.951529 50.7266 0.0264022C50.9376 -0.0793265 51.175 0.0264022 51.2805 0.23786C51.3597 0.449317 51.2805 0.687207 51.0695 0.792936C49.1702 1.6652 47.0863 2.74892 46.0839 4.33485C45.1079 5.92078 44.8705 7.8239 44.6858 9.83275C44.6331 10.3614 44.633 10.9165 44.633 11.4715C45.7673 6.55515 48.7482 -1.32164 58.3237 1.98238C58.3237 1.98238 61.4364 2.74892 61.5683 7.71817C61.5683 7.37455 67.8992 7.16309 68.4796 7.21596C70.5635 7.37455 72.7266 8.16752 73.94 9.85918C75.1534 11.5508 75.0216 14.2734 73.2805 15.4364C75.5491 15.2249 77.8441 15.4628 80.0335 16.0443C80.0863 16.0443 80.1127 16.0443 80.1654 16.0443C86.3117 16.5201 89.5827 19.6127 91.2182 22.0973C91.3501 22.2823 91.2973 22.5466 91.1127 22.6788C91.0336 22.7317 90.9544 22.7581 90.8753 22.7581C90.7434 22.7581 90.6115 22.6788 90.5323 22.5731C89.3981 20.855 87.4196 18.8197 84.1223 17.7095C85.3621 18.3703 86.5228 19.2162 87.3933 20.2999C88.3165 21.4629 88.8705 22.9431 88.7386 24.4233C91.8777 24.1061 95.2014 24.2119 98.1295 25.5599C100.002 26.4057 101.453 27.8859 102.429 29.6569C103.432 31.4807 103.959 33.516 104.276 35.5513C104.645 37.8509 103.273 39.3046 102.35 40.1505C101.295 41.0756 100.002 41.71 98.6571 42.08C93.5395 43.5074 111.029 47.3929 108.971 54.1595C106.887 60.9262 99.8441 60.6619 93.2758 57.1992C86.7338 53.7366 81.4844 49.6661 78.9256 50.4855C78.6618 50.5648 78.3717 50.6705 78.0815 50.8026C82.6451 52.0714 89.6355 56.8028 95.3333 61.1112C100.134 64.7588 106.623 61.7191 106.703 61.6927C106.914 61.587 107.151 61.6927 107.257 61.8777C107.362 62.0892 107.257 62.3271 107.072 62.4328C106.887 62.5121 104.276 63.7544 101.058 63.7544C99.0527 63.7544 96.8633 63.2786 94.8585 61.772C86.5491 55.4811 81.3525 53.6309 77.9496 53.1287C75.9712 54.0274 75.7865 55.2168 73.8873 56.327C72.8585 56.9349 70.5635 55.3226 69.693 56.0891C68.7961 56.8821 66.2374 57.6486 64.9976 57.49C63.705 57.305 62.5443 56.5649 61.5947 55.6397C60.5659 54.6089 59.8009 53.393 58.8777 52.2564C57.9808 51.1463 56.9256 50.1683 56.0287 49.0581C55.1846 48.0273 54.5779 46.8114 53.8393 45.7012C53.2326 44.7761 52.5467 43.9303 52.3621 42.7937C52.1247 41.2342 52.494 39.6218 53.0479 38.1681C53.4436 37.1108 54.4988 34.6261 55.7913 33.3574C56.2398 33.701 56.8201 33.9125 57.4268 33.9125C58.9304 33.9125 60.1702 32.6966 60.1702 31.1635C60.1702 29.6569 58.9568 28.4146 57.4268 28.4146C57.4268 28.3881 57.4532 27.7009 54.9208 26.1943C51.4124 24.1326 49.7506 19.9827 50.4364 18.0267C51.1486 16.0972 46.0839 16.2293 44.7913 15.5685C43.4988 14.9077 43.8681 14.987 43.8681 14.987C43.8681 14.9606 43.8944 14.9606 43.8944 14.9342C43.7889 14.9342 43.7098 14.7491 43.7362 14.5641Z" fill="#3D3C3B"/>
<path d="M40.3597 25.9299C39.8498 25.9299 39.4364 25.5157 39.4364 25.0048C39.4364 24.4938 39.8498 24.0797 40.3597 24.0797C40.8696 24.0797 41.283 24.4938 41.283 25.0048C41.283 25.5157 40.8696 25.9299 40.3597 25.9299Z" fill="#3D3C3B"/>
<path d="M38.9352 21.3043C38.9352 21.3572 40.7026 21.3836 40.8609 21.3836C41.8897 21.4629 42.9448 21.5686 43.8417 22.1237C44.2374 22.3616 44.5276 22.7052 44.7914 23.0489C45.0551 23.366 45.3189 23.8418 45.6882 24.0533C45.6882 23.9211 45.6355 23.789 45.5827 23.6568C45.3189 22.9696 45.0815 22.2559 44.6595 21.6479C44.0791 20.8021 42.8657 20.247 41.8897 20.0356C40.94 19.7977 38.5923 19.7448 38.9352 21.3043Z" fill="#3D3C3B"/>
<g opacity="0.77">
<path opacity="0.77" d="M39.6475 99.4643H40.518C42.4173 99.5964 48.7746 99.4643 55.6859 99.2528H55.7123C55.7123 99.2528 47.7458 94.6536 48.1943 83.7107C46.0576 87.9927 42.7602 94.4157 39.6475 99.4643Z" fill="#3D3D6B"/>
</g>
<path d="M72.9376 81.0675C72.9376 81.0675 75.47 81.0146 76.8417 80.1952L74.5467 78.5829L72.9376 81.0675Z" fill="#3D3D6B"/>
<g opacity="0.77">
<path opacity="0.77" d="M81.6427 70.3889C82.3549 70.944 83.0936 71.5784 83.8585 72.2127C84.2806 72.4242 86.813 66.8734 86.813 66.8734C85.1247 67.5078 83.331 68.803 81.6427 70.3889Z" fill="#3D3D6B"/>
</g>
<path d="M31.259 72.9529C31.259 72.9529 32.4724 75.9397 35.7698 78.16L36.6139 76.3626L31.259 72.9529Z" fill="#3D3D6B"/>
<path d="M137.46 214.867C137.513 215.132 137.619 215.396 137.724 215.634C138.832 217.775 143.422 215.475 144.715 214.471C146.614 212.964 147.511 209.211 148.091 206.964C149.041 203.316 149.99 199.669 150.966 196.021C151.626 193.563 153.13 191.528 153.947 189.202C154.237 188.382 153.393 187.114 152.707 186.611C152.417 186.4 151.652 186.294 150.861 186.268C150.887 186.294 150.914 186.347 150.914 186.373C151.283 187.061 145.453 191.977 144.398 203.052C143.343 214.127 138.885 214.814 138.806 215.264C138.806 215.317 138.806 215.37 138.832 215.422C138.727 215.37 138.595 215.343 138.436 215.264C137.962 215.132 137.645 214.973 137.46 214.867Z" fill="#3D3C3B"/>
<path d="M130.945 196.497C131.209 197.528 132.818 197.766 133.161 198.876C133.24 199.087 133.345 199.88 133.504 200.964C133.583 201.493 133.662 202.074 133.767 202.735C133.82 203.158 133.899 203.607 133.978 204.057C134.058 204.612 134.163 205.22 134.269 205.801C134.348 206.171 134.401 206.541 134.48 206.911C134.585 207.493 134.717 208.048 134.823 208.603C135.403 211.273 136.168 213.651 137.118 214.471C137.118 214.577 137.302 214.682 137.381 214.735C137.803 215.026 138.357 215.211 138.859 215.343C138.727 215.317 139.149 214.973 139.175 214.947C139.386 214.814 139.597 214.656 139.808 214.524C140.23 214.233 140.626 213.889 140.969 213.493C141.866 212.488 142.499 211.246 142.974 209.977C143.791 207.783 144.213 205.457 144.425 203.131C144.425 203.079 144.425 203.052 144.425 202.999C145.48 191.924 151.309 187.008 150.94 186.321C150.571 185.633 150.254 184.814 147.089 184.206C143.897 183.598 136.933 183.677 136.933 183.677C137.645 185.105 139.201 188.25 138.146 189.81C137.883 190.206 137.46 190.444 137.038 190.655C134.849 191.845 131.631 192.955 130.971 195.704C130.892 196.048 130.892 196.285 130.945 196.497Z" fill="#FDC445"/>
<path d="M133.477 200.99C133.556 201.519 133.636 202.127 133.741 202.761L137.672 199.457C137.988 199.193 138.041 198.717 137.777 198.374C137.619 198.189 137.408 198.109 137.197 198.109C137.012 198.109 136.854 198.162 136.722 198.294L133.477 200.99Z" fill="#3D3C3B"/>
<path d="M133.952 204.083C134.031 204.638 134.137 205.246 134.242 205.828L138.41 202.338C138.727 202.074 138.779 201.572 138.516 201.255C138.357 201.07 138.146 200.99 137.935 200.99C137.751 200.99 137.592 201.043 137.461 201.175L133.952 204.083Z" fill="#3D3C3B"/>
<path d="M134.453 206.938C134.559 207.519 134.691 208.074 134.796 208.629L138.753 205.299C139.07 205.035 139.122 204.559 138.859 204.215C138.7 204.03 138.489 203.951 138.278 203.951C138.094 203.951 137.935 204.004 137.777 204.136L134.453 206.938Z" fill="#3D3C3B"/>
<path opacity="0.77" d="M67.7674 65.1818L70.9329 80.0366L72.9113 81.0675C72.9113 81.0675 75.602 76.8384 79.1104 72.9528L67.7674 65.1818Z" fill="#3D3D6B"/>
</g>
<defs>
<clipPath id="clip0">
<rect width="154" height="245" fill="white" transform="matrix(-1 0 0 1 154 0)"/>
</clipPath>
</defs>
</svg>
